<mxfile host="app.diagrams.net" modified="2023-10-05T14:41:13.093Z" agent="Mozilla/5.0 (Windows NT 10.0; Win64; x64) AppleWebKit/537.36 (KHTML, like Gecko) Chrome/117.0.0.0 Safari/537.36 Edg/117.0.2045.47" etag="buWof0Q_76l2qXKRKfmL" version="22.0.2" type="github">
  <diagram id="C5RBs43oDa-KdzZeNtuy" name="Page-1">
    <mxGraphModel dx="786" dy="467" grid="1" gridSize="10" guides="1" tooltips="1" connect="1" arrows="1" fold="1" page="1" pageScale="1" pageWidth="827" pageHeight="1169" math="0" shadow="0">
      <root>
        <mxCell id="WIyWlLk6GJQsqaUBKTNV-0" />
        <mxCell id="WIyWlLk6GJQsqaUBKTNV-1" parent="WIyWlLk6GJQsqaUBKTNV-0" />
        <mxCell id="4JsJQQCCOiamE_zAF1IR-0" value="GeometryShapes" style="swimlane;fontStyle=1;align=center;verticalAlign=top;childLayout=stackLayout;horizontal=1;startSize=26;horizontalStack=0;resizeParent=1;resizeParentMax=0;resizeLast=0;collapsible=1;marginBottom=0;whiteSpace=wrap;html=1;fillColor=#d5e8d4;strokeColor=#82b366;" parent="WIyWlLk6GJQsqaUBKTNV-1" vertex="1">
          <mxGeometry x="190" y="40" width="354" height="280" as="geometry" />
        </mxCell>
        <mxCell id="4JsJQQCCOiamE_zAF1IR-1" value="+ x: float&lt;br&gt;+ y: float&lt;br&gt;&lt;br&gt;-&amp;nbsp;" style="text;strokeColor=none;fillColor=none;align=left;verticalAlign=top;spacingLeft=4;spacingRight=4;overflow=hidden;rotatable=0;points=[[0,0.5],[1,0.5]];portConstraint=eastwest;whiteSpace=wrap;html=1;" parent="4JsJQQCCOiamE_zAF1IR-0" vertex="1">
          <mxGeometry y="26" width="354" height="54" as="geometry" />
        </mxCell>
        <mxCell id="4JsJQQCCOiamE_zAF1IR-2" value="" style="line;strokeWidth=1;fillColor=none;align=left;verticalAlign=middle;spacingTop=-1;spacingLeft=3;spacingRight=3;rotatable=0;labelPosition=right;points=[];portConstraint=eastwest;strokeColor=inherit;" parent="4JsJQQCCOiamE_zAF1IR-0" vertex="1">
          <mxGeometry y="80" width="354" height="8" as="geometry" />
        </mxCell>
        <mxCell id="4JsJQQCCOiamE_zAF1IR-3" value="- __init__&lt;br&gt;- __repr__(self): str&lt;br&gt;- __str__(self): str&lt;br&gt;&lt;br&gt;+ equal(self, other): bool&lt;br&gt;+ not_equal(self, other): bool&lt;br&gt;+ greater_than(self, other): bool&lt;br&gt;+ less_than(self, other): bool&lt;br&gt;+ greater_than_or_equal_to(self, other): bool&lt;br&gt;+ less_than_or_equal_to(self, other): bool&lt;br&gt;&lt;br&gt;+ point_inside_shape(self): bool" style="text;strokeColor=none;fillColor=none;align=left;verticalAlign=top;spacingLeft=4;spacingRight=4;overflow=hidden;rotatable=0;points=[[0,0.5],[1,0.5]];portConstraint=eastwest;whiteSpace=wrap;html=1;" parent="4JsJQQCCOiamE_zAF1IR-0" vertex="1">
          <mxGeometry y="88" width="354" height="192" as="geometry" />
        </mxCell>
        <mxCell id="4JsJQQCCOiamE_zAF1IR-6" value="Circle" style="swimlane;fontStyle=1;align=center;verticalAlign=top;childLayout=stackLayout;horizontal=1;startSize=26;horizontalStack=0;resizeParent=1;resizeParentMax=0;resizeLast=0;collapsible=1;marginBottom=0;whiteSpace=wrap;html=1;fillColor=#60a917;strokeColor=#2D7600;fontColor=#ffffff;" parent="WIyWlLk6GJQsqaUBKTNV-1" vertex="1">
          <mxGeometry x="80" y="470" width="210" height="200" as="geometry" />
        </mxCell>
        <mxCell id="4JsJQQCCOiamE_zAF1IR-7" value="+ diameter: float&lt;br&gt;+ radius: float" style="text;strokeColor=none;fillColor=none;align=left;verticalAlign=top;spacingLeft=4;spacingRight=4;overflow=hidden;rotatable=0;points=[[0,0.5],[1,0.5]];portConstraint=eastwest;whiteSpace=wrap;html=1;" parent="4JsJQQCCOiamE_zAF1IR-6" vertex="1">
          <mxGeometry y="26" width="210" height="54" as="geometry" />
        </mxCell>
        <mxCell id="4JsJQQCCOiamE_zAF1IR-8" value="" style="line;strokeWidth=1;fillColor=none;align=left;verticalAlign=middle;spacingTop=-1;spacingLeft=3;spacingRight=3;rotatable=0;labelPosition=right;points=[];portConstraint=eastwest;strokeColor=inherit;" parent="4JsJQQCCOiamE_zAF1IR-6" vertex="1">
          <mxGeometry y="80" width="210" height="8" as="geometry" />
        </mxCell>
        <mxCell id="4JsJQQCCOiamE_zAF1IR-9" value="+ area(self): float&lt;br&gt;+&amp;nbsp;circumference(sef): float&lt;br&gt;+ is_unit_circel(self): bool" style="text;strokeColor=none;fillColor=none;align=left;verticalAlign=top;spacingLeft=4;spacingRight=4;overflow=hidden;rotatable=0;points=[[0,0.5],[1,0.5]];portConstraint=eastwest;whiteSpace=wrap;html=1;" parent="4JsJQQCCOiamE_zAF1IR-6" vertex="1">
          <mxGeometry y="88" width="210" height="112" as="geometry" />
        </mxCell>
        <mxCell id="4JsJQQCCOiamE_zAF1IR-14" value="Extends" style="endArrow=block;endSize=16;endFill=0;html=1;rounded=0;exitX=0.5;exitY=0;exitDx=0;exitDy=0;entryX=0.158;entryY=1.077;entryDx=0;entryDy=0;entryPerimeter=0;" parent="WIyWlLk6GJQsqaUBKTNV-1" source="4JsJQQCCOiamE_zAF1IR-6" target="4JsJQQCCOiamE_zAF1IR-3" edge="1">
          <mxGeometry width="160" relative="1" as="geometry">
            <mxPoint x="320" y="360" as="sourcePoint" />
            <mxPoint x="300" y="290" as="targetPoint" />
          </mxGeometry>
        </mxCell>
        <mxCell id="4JsJQQCCOiamE_zAF1IR-15" value="Extends" style="endArrow=block;endSize=16;endFill=0;html=1;rounded=0;exitX=0.5;exitY=0;exitDx=0;exitDy=0;entryX=0.867;entryY=1.077;entryDx=0;entryDy=0;entryPerimeter=0;" parent="WIyWlLk6GJQsqaUBKTNV-1" source="4JsJQQCCOiamE_zAF1IR-10" target="4JsJQQCCOiamE_zAF1IR-3" edge="1">
          <mxGeometry width="160" relative="1" as="geometry">
            <mxPoint x="540" y="360" as="sourcePoint" />
            <mxPoint x="420" y="300" as="targetPoint" />
            <Array as="points" />
          </mxGeometry>
        </mxCell>
        <mxCell id="4JsJQQCCOiamE_zAF1IR-10" value="Rectangle" style="swimlane;fontStyle=1;align=center;verticalAlign=top;childLayout=stackLayout;horizontal=1;startSize=26;horizontalStack=0;resizeParent=1;resizeParentMax=0;resizeLast=0;collapsible=1;marginBottom=0;whiteSpace=wrap;html=1;fillColor=#60a917;strokeColor=#2D7600;fontColor=#ffffff;" parent="WIyWlLk6GJQsqaUBKTNV-1" vertex="1">
          <mxGeometry x="460" y="470" width="210" height="200" as="geometry" />
        </mxCell>
        <mxCell id="4JsJQQCCOiamE_zAF1IR-11" value="+ height: float&lt;br&gt;+ width: float" style="text;strokeColor=none;fillColor=none;align=left;verticalAlign=top;spacingLeft=4;spacingRight=4;overflow=hidden;rotatable=0;points=[[0,0.5],[1,0.5]];portConstraint=eastwest;whiteSpace=wrap;html=1;" parent="4JsJQQCCOiamE_zAF1IR-10" vertex="1">
          <mxGeometry y="26" width="210" height="46" as="geometry" />
        </mxCell>
        <mxCell id="4JsJQQCCOiamE_zAF1IR-12" value="" style="line;strokeWidth=1;fillColor=none;align=left;verticalAlign=middle;spacingTop=-1;spacingLeft=3;spacingRight=3;rotatable=0;labelPosition=right;points=[];portConstraint=eastwest;strokeColor=inherit;" parent="4JsJQQCCOiamE_zAF1IR-10" vertex="1">
          <mxGeometry y="72" width="210" height="8" as="geometry" />
        </mxCell>
        <mxCell id="4JsJQQCCOiamE_zAF1IR-13" value="+ is_square(self): bool&lt;br&gt;+ area(self): float&lt;br style=&quot;border-color: var(--border-color);&quot;&gt;+&amp;nbsp;circumference(self): float" style="text;strokeColor=none;fillColor=none;align=left;verticalAlign=top;spacingLeft=4;spacingRight=4;overflow=hidden;rotatable=0;points=[[0,0.5],[1,0.5]];portConstraint=eastwest;whiteSpace=wrap;html=1;" parent="4JsJQQCCOiamE_zAF1IR-10" vertex="1">
          <mxGeometry y="80" width="210" height="120" as="geometry" />
        </mxCell>
      </root>
    </mxGraphModel>
  </diagram>
</mxfile>
